HIERARCHY
ROOT Hips
{
	OFFSET 0.000000 0.000000 0.000000 
	CHANNELS 6 Xposition Yposition Zposition Zrotation Yrotation Xrotation
	JOINT LeftUpLeg
	{
		OFFSET 1.363060 -1.794630 0.839290 
		CHANNELS 3 Zrotation Yrotation Xrotation
		JOINT LeftLeg
		{
			OFFSET 2.448110 -6.726130 0.000000 
			CHANNELS 3 Zrotation Yrotation Xrotation
			JOINT LeftFoot
			{
				OFFSET 2.562200 -7.039590 0.000000 
				CHANNELS 3 Zrotation Yrotation Xrotation
				JOINT LeftToeBase
				{
					OFFSET 0.157640 -0.433110 2.322550 
					CHANNELS 3 Zrotation Yrotation Xrotation
					End Site
					{
						OFFSET 0.000000 0.000000 0.000000 
					}
				}
			}
		}
	}
	JOINT RightUpLeg
	{
		OFFSET -1.305520 -1.794630 0.839290 
		CHANNELS 3 Zrotation Yrotation Xrotation
		JOINT RightLeg
		{
			OFFSET -2.542530 -6.985550 0.000000 
			CHANNELS 3 Zrotation Yrotation Xrotation
			JOINT RightFoot
			{
				OFFSET -2.568260 -7.056230 0.000000 
				CHANNELS 3 Zrotation Yrotation Xrotation
				JOINT RightToeBase
				{
					OFFSET -0.164730 -0.452590 2.363150 
					CHANNELS 3 Zrotation Yrotation Xrotation
					End Site
					{
						OFFSET 0.000000 0.000000 0.000000 
					}
				}
			}
		}
	}
	JOINT Spine
	{
		OFFSET 0.028270 2.035590 -0.193380 
		CHANNELS 3 Zrotation Yrotation Xrotation
		JOINT Spine1
		{
			OFFSET 0.056720 2.048850 -0.042750 
			CHANNELS 3 Zrotation Yrotation Xrotation
			JOINT Neck1
			{
				OFFSET -0.054170 1.746240 0.172020 
				CHANNELS 3 Zrotation Yrotation Xrotation
				JOINT Head
				{
					OFFSET 0.104070 1.761360 -0.123970 
					CHANNELS 3 Zrotation Yrotation Xrotation
					End Site
					{
						OFFSET 0.000000 0.000000 0.000000 
					}
				}
			}
			JOINT LeftArm
			{
				OFFSET 3.362410 1.200890 -0.311210 
				CHANNELS 3 Zrotation Yrotation Xrotation
				JOINT LeftForeArm
				{
					OFFSET 4.983000 -0.000000 -0.000000 
					CHANNELS 3 Zrotation Yrotation Xrotation
					JOINT LeftHand
					{
						OFFSET 3.483560 -0.000000 -0.000000 
						CHANNELS 3 Zrotation Yrotation Xrotation
						JOINT LeftHandIndex1
						{
							OFFSET 0.715260 -0.000000 -0.000000 
							CHANNELS 3 Zrotation Yrotation Xrotation
							End Site
							{
								OFFSET 0.000000 0.000000 0.000000 
							}
						}
					}
				}
			}
			JOINT RightArm
			{
				OFFSET -3.136600 1.374050 -0.404650 
				CHANNELS 3 Zrotation Yrotation Xrotation
				JOINT RightForeArm
				{
					OFFSET -5.241900 -0.000000 -0.000000 
					CHANNELS 3 Zrotation Yrotation Xrotation
					JOINT RightHand
					{
						OFFSET -3.444170 -0.000000 -0.000000 
						CHANNELS 3 Zrotation Yrotation Xrotation
						JOINT RightHandIndex1
						{
							OFFSET -0.622530 -0.000000 -0.000000 
							CHANNELS 3 Zrotation Yrotation Xrotation
							End Site
							{
								OFFSET 0.000000 0.000000 0.000000 
							}
						}
					}
				}
			}
		}
	}
}
MOTION
Frames: 6
Frame Time: 0.041667
6.732535 17.337375 2.599811 -171.745210 -54.881650 177.743483 -29.878877 -12.645561 5.158301 -10.451014 5.695971 15.948240 4.173975 -8.038980 -25.780633 7.112300 -15.425700 -49.297700 42.537856 20.838807 4.728141 14.149948 2.891427 -6.314880 -2.059325 -20.050446 -42.827239 -2.570700 -9.965400 28.864800 1.260500 1.566938 -4.684589 1.275273 0.311508 -15.654737 5.137564 -11.427965 13.405058 0.545500 -5.524900 12.161000 -88.487817 13.334278 19.346033 21.747993 -35.184522 -8.494565 0.223700 2.015991 5.087413 -7.125000 0.000000 0.000000 73.479196 -17.231571 41.136991 -28.598184 41.998499 -9.939286 0.567622 -2.496891 -19.724045 7.125000 0.000000 0.000000 
6.780562 17.348120 2.728979 -172.002538 -54.734119 178.322131 -30.466643 -13.315975 4.936713 -10.668268 5.621399 15.460648 4.112642 -7.135423 -26.468765 7.263000 -15.549400 -49.862200 41.629757 21.219668 3.827661 14.054405 2.768382 -6.295806 -2.007704 -19.829340 -42.888913 -2.616000 -10.045900 29.125400 1.206714 1.521081 -4.642033 1.136519 0.285560 -15.516452 5.202937 -11.451104 13.345929 0.528700 -5.486700 12.240400 -88.308415 12.143784 18.193708 20.107121 -33.542877 -7.696459 0.170087 2.132569 6.263910 -7.125000 0.000000 0.000000 73.752108 -16.706540 40.566372 -28.714976 42.056567 -9.869566 0.736884 -2.501635 -18.297568 7.125000 0.000000 0.000000 
6.831330 17.356125 2.853323 -172.216362 -54.521267 178.882628 -30.880628 -13.727742 4.571941 -10.818023 5.545461 14.973817 4.085506 -7.090332 -26.725311 7.068200 -15.389100 -49.131800 40.773577 21.674620 2.887143 13.979823 2.623475 -6.267612 -1.855385 -20.010540 -42.738093 -2.537800 -9.906200 28.673600 1.168330 1.505249 -4.639452 1.073446 0.280754 -15.509347 5.149167 -11.465119 13.470626 0.447400 -5.458500 12.415000 -88.077264 11.677810 17.570772 19.243677 -32.595004 -7.219533 0.066367 2.216641 6.939095 -7.125000 0.000000 0.000000 73.842240 -16.551412 40.741169 -29.162572 42.388079 -10.012349 0.843206 -2.486782 -18.510163 7.125000 0.000000 0.000000 
6.882866 17.363800 2.969333 -172.385975 -54.310045 179.374223 -31.161745 -13.994753 4.149735 -10.920294 5.483129 14.546403 4.058189 -7.417854 -26.691221 6.932200 -15.274500 -48.617300 39.989294 22.104857 1.986345 13.913986 2.468246 -6.212120 -1.722172 -20.162114 -42.627822 -2.385300 -9.626300 27.774900 1.129833 1.489415 -4.622045 1.075896 0.288299 -15.621108 5.435811 -11.615705 13.122155 0.674700 -5.558000 12.081200 -87.700085 11.713461 17.550685 18.872602 -32.115576 -6.930422 -0.073717 2.264328 7.014925 -7.125000 0.000000 0.000000 73.947077 -16.601399 41.124375 -29.826406 42.921035 -10.282067 0.949470 -2.462988 -19.445552 7.125000 0.000000 0.000000 
6.931660 17.370270 3.081834 -172.688058 -54.043915 179.936961 -31.524963 -14.295790 3.790950 -11.080943 5.406403 14.122230 3.937860 -6.621787 -26.963350 7.025800 -15.353600 -48.972000 39.046049 22.551772 1.055659 13.828807 2.259941 -6.024382 -1.680547 -19.806385 -42.608609 -2.271000 -9.409100 27.083600 1.081108 1.509204 -4.611272 1.010590 0.309914 -15.596501 5.518211 -11.701889 13.156085 0.662100 -5.549000 12.218600 -87.212050 11.875451 17.722659 18.835651 -31.937296 -6.770412 -0.243997 2.283924 6.886506 -7.125000 0.000000 0.000000 74.212868 -16.537801 41.018965 -30.329649 43.310368 -10.479329 1.047175 -2.442432 -19.398358 7.125000 0.000000 0.000000 
6.980345 17.375862 3.193678 -173.017641 -53.767012 -179.439658 -31.875895 -14.572054 3.396592 -11.267216 5.312643 13.666660 3.753937 -5.286641 -27.314519 7.277800 -15.561400 -49.917300 37.954428 23.000781 -0.008008 13.727273 1.964026 -5.666098 -1.734064 -18.955384 -42.732621 -2.026900 -8.921900 25.551200 1.074042 1.455922 -4.594498 1.189418 0.327611 -15.575309 5.654479 -11.722620 13.070183 0.726300 -5.540500 12.208900 -87.068569 12.206246 17.638849 19.187102 -32.075556 -6.639693 -0.567882 2.286241 7.059467 -7.125000 0.000000 0.000000 74.231987 -16.427833 41.255321 -31.025927 43.784672 -10.711655 1.184154 -2.386221 -19.667021 7.125000 0.000000 0.000000 
